<?xml version="1.0" encoding="UTF-8"?>
<svg id="Calque_2" data-name="Calque 2" xmlns="http://www.w3.org/2000/svg" viewBox="0 0 31.36 31.32">
  <defs>
    <style>
      .cls-1 {
        fill: #323232;
      }
    </style>
  </defs>
  <g id="Calque_1-2" data-name="Calque 1">
    <path class="cls-1" d="m15.68,0C11.42,0,10.89.02,9.22.09c-1.67.08-2.81.34-3.81.73-1.03.4-1.91.94-2.78,1.81-.87.87-1.41,1.74-1.81,2.77-.39,1-.65,2.13-.73,3.8-.07,1.67-.09,2.2-.09,6.46s.02,4.79.09,6.46c.08,1.67.34,2.81.73,3.8.4,1.03.94,1.9,1.81,2.77.87.87,1.75,1.41,2.78,1.81,1,.39,2.14.65,3.81.73,1.67.08,2.21.09,6.47.09s4.79-.02,6.47-.09c1.67-.08,2.81-.34,3.81-.73,1.03-.4,1.9-.94,2.78-1.81.87-.87,1.41-1.74,1.81-2.77.39-1,.65-2.13.73-3.8.08-1.67.09-2.2.09-6.46s-.02-4.79-.09-6.46c-.08-1.67-.34-2.81-.73-3.8-.4-1.03-.94-1.9-1.81-2.77-.87-.87-1.74-1.41-2.78-1.81-1-.39-2.14-.65-3.81-.73-1.67-.08-2.21-.09-6.47-.09h0Zm-1.41,2.82c.42,0,.88,0,1.41,0,4.19,0,4.68.02,6.34.09,1.53.07,2.36.32,2.91.54.73.28,1.25.62,1.8,1.17.55.55.89,1.07,1.17,1.8.21.55.47,1.38.54,2.91.08,1.65.09,2.15.09,6.33s-.02,4.68-.09,6.33c-.07,1.53-.33,2.36-.54,2.91-.28.73-.62,1.25-1.17,1.8-.55.55-1.07.89-1.8,1.17-.55.22-1.38.47-2.91.54-1.65.08-2.15.09-6.34.09s-4.68-.02-6.34-.09c-1.53-.07-2.36-.33-2.91-.54-.73-.28-1.25-.62-1.8-1.17-.55-.55-.89-1.07-1.17-1.8-.21-.55-.47-1.38-.54-2.91-.08-1.65-.09-2.15-.09-6.33s.02-4.68.09-6.33c.07-1.53.33-2.36.54-2.91.28-.73.62-1.25,1.17-1.8.55-.55,1.07-.89,1.8-1.17.55-.22,1.38-.47,2.91-.54,1.45-.07,2.01-.08,4.93-.09h0Zm9.78,2.6c-1.04,0-1.88.84-1.88,1.88s.84,1.88,1.88,1.88,1.88-.84,1.88-1.88-.84-1.88-1.88-1.88h0Zm-8.37,2.2c-4.45,0-8.05,3.6-8.05,8.04s3.61,8.04,8.05,8.04c4.45,0,8.05-3.6,8.05-8.04s-3.6-8.04-8.05-8.04h0Zm0,2.82c2.89,0,5.23,2.34,5.23,5.22s-2.34,5.22-5.23,5.22-5.23-2.34-5.23-5.22,2.34-5.22,5.23-5.22Z"/>
  </g>
</svg>