<?xml version="1.0" encoding="UTF-8"?>
<svg id="Calque_2" data-name="Calque 2" xmlns="http://www.w3.org/2000/svg" viewBox="0 0 31.36 31.32">
  <defs>
    <style>
      .cls-1 {
        fill: #323232;
        fill-rule: evenodd;
      }
    </style>
  </defs>
  <g id="Calque_1-2" data-name="Calque 1">
    <path class="cls-1" d="m15.68,0C7.02,0,0,7.01,0,15.66s7.02,15.66,15.68,15.66,15.68-7.01,15.68-15.66S24.34,0,15.68,0Zm-4.81,24.8h-3.96v-12.76h3.96v12.76Zm-2-14.43c-1.29,0-2.34-1.05-2.34-2.35s1.05-2.35,2.34-2.35,2.34,1.05,2.34,2.35-1.05,2.35-2.34,2.35Zm16.83,14.43h-3.94v-6.7c0-1.84-.7-2.86-2.15-2.86-1.58,0-2.41,1.07-2.41,2.86v6.7h-3.8v-12.76h3.8v1.72s1.14-2.11,3.85-2.11,4.65,1.65,4.65,5.07v8.08Z"/>
  </g>
</svg>