<?xml version="1.0" encoding="UTF-8"?>
<svg id="Calque_2" data-name="Calque 2" xmlns="http://www.w3.org/2000/svg" viewBox="0 0 31.36 31.37">
  <defs>
    <style>
      .cls-1 {
        fill: #323232;
      }
    </style>
  </defs>
  <g id="Calque_1-2" data-name="Calque 1">
    <path class="cls-1" d="m15.7,0C7.03,0,0,7.02,0,15.67c0,6.64,4.13,12.32,9.97,14.6-.14-1.24-.26-3.15.05-4.5.28-1.23,1.83-7.79,1.83-7.79,0,0-.47-.94-.47-2.32,0-2.18,1.27-3.81,2.84-3.81,1.34,0,1.99,1.01,1.99,2.21,0,1.34-.85,3.35-1.3,5.22-.37,1.56.79,2.84,2.33,2.84,2.79,0,4.93-2.94,4.93-7.17,0-3.75-2.7-6.37-6.56-6.37-4.47,0-7.09,3.34-7.09,6.8,0,1.34.52,2.79,1.16,3.57.13.15.14.3.1.45-.12.49-.39,1.56-.44,1.78-.06.28-.23.35-.53.21-1.96-.92-3.19-3.77-3.19-6.08,0-4.94,3.59-9.48,10.37-9.48,5.44,0,9.68,3.87,9.68,9.06s-3.41,9.75-8.14,9.75c-1.59,0-3.09-.83-3.59-1.81,0,0-.79,2.99-.98,3.73-.35,1.37-1.3,3.07-1.95,4.12,1.47.45,3.02.7,4.65.7,8.67,0,15.7-7.02,15.7-15.67.03-8.68-7-15.7-15.67-15.7Z"/>
  </g>
</svg>