<?xml version="1.0" encoding="UTF-8"?>
<svg id="Calque_2" data-name="Calque 2" xmlns="http://www.w3.org/2000/svg" viewBox="0 0 31.36 25.45">
  <defs>
    <style>
      .cls-1 {
        fill: #323232;
      }
    </style>
  </defs>
  <g id="Calque_1-2" data-name="Calque 1">
    <path class="cls-1" d="m28.15,6.34c.02.28.02.55.02.83,0,8.49-6.47,18.28-18.31,18.28h0c-3.5,0-6.92-1-9.86-2.89.51.06,1.02.09,1.53.09,2.9,0,5.71-.97,7.99-2.76-2.75-.05-5.17-1.85-6.01-4.46.96.19,1.96.15,2.91-.11-3-.61-5.16-3.24-5.16-6.3v-.08c.89.5,1.9.77,2.92.8C1.35,7.87.48,4.11,2.18,1.17c3.27,4.01,8.09,6.46,13.26,6.71-.52-2.23.19-4.57,1.86-6.14,2.59-2.43,6.67-2.31,9.1.28,1.44-.28,2.82-.81,4.09-1.56-.48,1.49-1.49,2.75-2.83,3.55,1.28-.15,2.52-.49,3.7-1.01-.86,1.29-1.95,2.42-3.21,3.33h0Z"/>
  </g>
</svg>