<?xml version="1.0" encoding="UTF-8"?>
<svg id="Calque_2" data-name="Calque 2" xmlns="http://www.w3.org/2000/svg" viewBox="0 0 31.36 22.07">
  <defs>
    <style>
      .cls-1 {
        fill: #323232;
      }
    </style>
  </defs>
  <g id="Calque_1-2" data-name="Calque 1">
    <path class="cls-1" d="m30.71,3.45h0c-.36-1.36-1.42-2.42-2.77-2.79-2.45-.66-12.25-.66-12.25-.66,0,0-9.81,0-12.25.66-1.35.36-2.41,1.43-2.77,2.79-.66,2.46-.66,7.59-.66,7.59,0,0,0,5.13.66,7.59.36,1.36,1.42,2.42,2.77,2.79,2.45.66,12.25.66,12.25.66,0,0,9.81,0,12.25-.66,1.35-.36,2.41-1.43,2.77-2.79.66-2.46.66-7.59.66-7.59,0,0,0-5.13-.66-7.59ZM12.47,15.69V6.38l8.2,4.66-8.2,4.66Z"/>
  </g>
</svg>